<svg xmlns="http://www.w3.org/2000/svg" width="201.104" height="78.036" viewBox="0 0 201.104 78.036">
  <g id="logo" transform="translate(-493.78 -341.836)">
  <g class="op">
    <path id="Path_3315" data-name="Path 3315" d="M653.152,343.732v13.853h15.036V343.732h-4.363v9.49h-6.31v-9.49Z" fill="#d3d5d6"/>
    <path id="Path_3316" data-name="Path 3316" d="M644.222,343.732v22.707h32.9V343.732h-4.363v18.344H648.585V343.732Z" fill="#c7c9cb"/>
    <path id="Path_3317" data-name="Path 3317" d="M635.291,343.732v31.562H686.05V343.732h-4.363v27.2H639.654v-27.2Z" fill="#aeb0b3"/>
    
    <path id="Path_3318" data-name="Path 3318" d="M668.188,419.871V406.613H653.152v13.258h4.363v-8.895h6.31v8.895Z" fill="#d3d5d6"/>
    <path id="Path_3319" data-name="Path 3319" d="M677.119,419.871V397.759h-32.9v22.113h4.363v-17.75h24.171v17.75Z" fill="#c7c9cb"/>
    <path id="Path_3320" data-name="Path 3320" d="M686.05,419.871V388.9H635.291v30.968h4.363v-26.6h42.033v26.6Z" fill="#aeb0b3"/>
   <g class="sc1">
    <rect id="Rectangle_334" data-name="Rectangle 334" width="4.363" height="76.14" transform="translate(690.521 343.732)" fill="#96999c"/>
    <rect id="Rectangle_335" data-name="Rectangle 335" width="4.363" height="76.14" transform="translate(626.36 343.732)" fill="#96999c"/>
    </g>
     <g class="sc">
    <rect id="Rectangle_336" data-name="Rectangle 336" width="51.156" height="4.363" transform="translate(635.208 379.916)" fill="#008ad8"/>
    </g>
    </g>
    <path id="Path_3321" data-name="Path 3321" d="M499.71,369.7l-5.93,14.576h3.51l1.225-3.142h5.346l1.224,3.142h3.588L502.742,369.7Zm2.916,8.245H499.75l1.439-3.669Z" fill="#3b3c3e"/>
    <path id="Path_3322" data-name="Path 3322" d="M513.582,369.8h-3.414v14.476h10.093v-3.269h-6.679Z" fill="#3b3c3e"/>
    <path id="Path_3323" data-name="Path 3323" d="M530.4,375.342h-4.968V369.8h-3.413v14.476h3.413v-5.624H530.4v5.624h3.413V369.8H530.4Z" fill="#3b3c3e"/>
    <path id="Path_3324" data-name="Path 3324" d="M545.09,378.057c0,2.018-.944,3.129-2.657,3.129s-2.656-1.146-2.656-3.228V369.8h-3.413v8.239c0,4.1,2.2,6.455,6.031,6.455,3.882,0,6.108-2.388,6.108-6.555V369.8H545.09Z" fill="#3b3c3e"/>
    <path id="Path_3325" data-name="Path 3325" d="M556.78,375.429c-2.4-.641-2.718-.9-2.718-1.655,0-.6.584-.988,1.489-.988a5.846,5.846,0,0,1,3.347,1.337l.2.144,1.778-2.7-.158-.133a7.757,7.757,0,0,0-5.126-1.837c-2.9,0-4.923,1.833-4.923,4.5,0,3.036,2,3.811,4.613,4.508,2.355.632,2.526,1.01,2.526,1.6,0,.681-.636,1.087-1.7,1.087a5.755,5.755,0,0,1-3.845-1.644l-.184-.159-2.029,2.541.158.147a8.543,8.543,0,0,0,5.845,2.3c3.129,0,5.151-1.8,5.151-4.618,0-2.673-1.767-3.7-4.421-4.428" fill="#3b3c3e"/>
    <path id="Path_3326" data-name="Path 3326" d="M568.844,375.429c-2.4-.641-2.718-.9-2.718-1.655,0-.6.584-.988,1.489-.988a5.841,5.841,0,0,1,3.346,1.337l.2.144,1.78-2.7-.16-.133a7.755,7.755,0,0,0-5.126-1.837c-2.9,0-4.922,1.833-4.922,4.5,0,3.036,2,3.811,4.613,4.508,2.355.632,2.526,1.01,2.526,1.6,0,.681-.636,1.087-1.7,1.087a5.755,5.755,0,0,1-3.845-1.644l-.185-.159-2.028,2.541.158.147a8.539,8.539,0,0,0,5.845,2.3c3.128,0,5.151-1.8,5.151-4.618,0-2.673-1.767-3.7-4.421-4.428" fill="#3b3c3e"/>
    <path id="Path_3327" data-name="Path 3327" d="M579.751,369.7l-5.931,14.576h3.511l1.225-3.142H583.9l1.224,3.142h3.588L582.783,369.7Zm2.916,8.245h-2.876l1.439-3.669Z" fill="#3b3c3e"/>
    <rect id="Rectangle_337" data-name="Rectangle 337" width="3.414" height="14.476" transform="translate(590.343 369.799)" fill="#3b3c3e"/>
    <path id="Path_3328" data-name="Path 3328" d="M605.639,377.941l-5.926-8.142h-3.069v14.476h3.375v-8.422l6.136,8.422h2.86V369.8h-3.376Z" fill="#3b3c3e"/>
    <rect id="Rectangle_338" data-name="Rectangle 338" width="3.414" height="14.476" transform="translate(611.903 369.799)" fill="#3b3c3e"/>
    <path id="Path_3329" data-name="Path 3329" d="M605.6,356.8h-5.582v-4.557a4.7,4.7,0,0,0-4.591-4.789h-7.689v3.283h7.475a1.471,1.471,0,0,1,1.43,1.506v4.543H579.657v-9.332h-3.414v9.332h-5.187v-9.332h-3.414v9.332h-5.227v-9.332H559v9.332H546.371v-9.332h-3.414v9.332H532.181v-9.332h-3.413v9.332H516.034v-2.774c0-4.065-2.13-6.422-5.837-6.536v-.022h-5.454v9.066h-4.8c-1.922,0-2.982-.99-2.982-2.788v-3.924H493.78v4.157h.019c.106,3.875,2.365,6.1,6.262,6.1h8.1v-9.307h1.805c1.713,0,2.657,1.112,2.657,3.129v6.178h96.394V343.753H605.6Z" fill="#3b3c3e"/>
    <rect id="Rectangle_339" data-name="Rectangle 339" width="3.414" height="16.316" transform="translate(611.903 343.753)" fill="#3b3c3e"/>
    <path id="Path_3330" data-name="Path 3330" d="M546.768,361.687a1.9,1.9,0,1,0,1.829,1.9,1.869,1.869,0,0,0-1.829-1.9" fill="#3b3c3e"/>
    <path id="Path_3331" data-name="Path 3331" d="M542.591,361.687a1.9,1.9,0,1,0,1.827,1.9,1.87,1.87,0,0,0-1.827-1.9" fill="#3b3c3e"/>
    <path id="Path_3332" data-name="Path 3332" d="M504.24,361.687a1.9,1.9,0,1,0,1.828,1.9,1.87,1.87,0,0,0-1.828-1.9" fill="#3b3c3e"/>
    <path id="Path_3333" data-name="Path 3333" d="M500.062,361.687a1.9,1.9,0,1,0,1.828,1.9,1.869,1.869,0,0,0-1.828-1.9" fill="#3b3c3e"/>
    <path id="Path_3334" data-name="Path 3334" d="M530.357,345.64a1.9,1.9,0,1,0-1.829-1.9,1.868,1.868,0,0,0,1.829,1.9" fill="#3b3c3e"/>
    <path id="Path_3335" data-name="Path 3335" d="M543.2,397.467h-3.547a2.824,2.824,0,0,0-2.169.756,3.137,3.137,0,0,0-.7,2.21v3.774H543.2Zm-1.88,5.007h-2.694v-1.857a1.439,1.439,0,0,1,.352-1.08,1.581,1.581,0,0,1,1.123-.337h1.219Z" fill="#008ad8"/>
    <path id="Path_3336" data-name="Path 3336" d="M546.4,403.92a4.424,4.424,0,0,0,1.752.287h18.368V393.7h-1.865v8.771h-2.914v-2.041q0-2.967-2.878-2.966h-3.546v5.007h-2.841v-5.007h-1.85v5.007h-2.555a.891.891,0,0,1-1.05-1.05V393.7h-1.865v7.633a3.915,3.915,0,0,0,.3,1.673,1.822,1.822,0,0,0,.946.911m10.782-4.72H558.4a1.583,1.583,0,0,1,1.123.337,1.439,1.439,0,0,1,.352,1.08v1.857H557.18Z" fill="#008ad8"/>
    <path id="Path_3337" data-name="Path 3337" d="M552.628,405.1a.973.973,0,0,0-.495.133,1,1,0,0,0-.368.355.933.933,0,0,0-.136.488.869.869,0,0,0,.136.467,1.034,1.034,0,0,0,.368.348.972.972,0,0,0,.495.133.869.869,0,0,0,.466-.133,1.014,1.014,0,0,0,.349-.352.887.887,0,0,0,.132-.463.965.965,0,0,0-.129-.488.956.956,0,0,0-.348-.355.89.89,0,0,0-.47-.133" fill="#008ad8"/>
    <path id="Path_3338" data-name="Path 3338" d="M550.279,405.1a.921.921,0,0,0-.481.133.962.962,0,0,0-.353.355.974.974,0,0,0-.128.488.875.875,0,0,0,.133.467,1.02,1.02,0,0,0,.352.348.9.9,0,0,0,.477.133.886.886,0,0,0,.474-.133,1,1,0,0,0,.344-.348.9.9,0,0,0,.129-.467.993.993,0,0,0-.125-.488.933.933,0,0,0-.345-.355.9.9,0,0,0-.477-.133" fill="#008ad8"/>
    <rect id="Rectangle_340" data-name="Rectangle 340" width="1.865" height="10.504" transform="translate(568.47 393.703)" fill="#008ad8"/>
    <path id="Path_3339" data-name="Path 3339" d="M585.907,404.207v-6.74h-1.851v5.007h-5.638a1.586,1.586,0,0,1-1.123-.337,1.431,1.431,0,0,1-.353-1.073v-2.122H575.1v2.305a3.133,3.133,0,0,0,.7,2.207,2.834,2.834,0,0,0,2.173.753Z" fill="#008ad8"/>
    <path id="Path_3340" data-name="Path 3340" d="M579.028,396.96a.913.913,0,0,0,.478.132.893.893,0,0,0,.473-.132.993.993,0,0,0,.345-.349.9.9,0,0,0,.128-.466.99.99,0,0,0-.124-.489.953.953,0,0,0-.346-.356.906.906,0,0,0-.476-.132.935.935,0,0,0-.482.132.977.977,0,0,0-.352.356.963.963,0,0,0-.128.489.879.879,0,0,0,.132.466,1,1,0,0,0,.352.349" fill="#008ad8"/>
    <path id="Path_3341" data-name="Path 3341" d="M581.359,396.96a.985.985,0,0,0,.5.132.882.882,0,0,0,.466-.132,1.019,1.019,0,0,0,.348-.352.892.892,0,0,0,.132-.463.963.963,0,0,0-.128-.489.989.989,0,0,0-.348-.356.9.9,0,0,0-.47-.132.985.985,0,0,0-.5.132,1.019,1.019,0,0,0-.367.356.922.922,0,0,0-.136.489.857.857,0,0,0,.136.466,1.016,1.016,0,0,0,.367.349" fill="#008ad8"/>
    <path id="Path_3342" data-name="Path 3342" d="M589.111,403.92a4.411,4.411,0,0,0,1.751.287h3.869v-6.74h-1.85v5.007h-2.1a.89.89,0,0,1-1.05-1.05V393.7h-1.865v7.633a3.919,3.919,0,0,0,.3,1.673,1.828,1.828,0,0,0,.947.911" fill="#008ad8"/>
    <path id="Path_3343" data-name="Path 3343" d="M593.336,395.969a.916.916,0,0,0,.477.133.9.9,0,0,0,.474-.133,1.013,1.013,0,0,0,.346-.349.9.9,0,0,0,.128-.466.99.99,0,0,0-.125-.488.943.943,0,0,0-.345-.356.916.916,0,0,0-.478-.132.93.93,0,0,0-.48.132.97.97,0,0,0-.481.844.877.877,0,0,0,.132.466,1.031,1.031,0,0,0,.352.349" fill="#008ad8"/>
    <rect id="Rectangle_341" data-name="Rectangle 341" width="1.866" height="10.504" transform="translate(596.683 393.703)" fill="#008ad8"/>
    <path id="Path_3344" data-name="Path 3344" d="M615.367,404.207V393.7H613.5v8.771h-2.944v-.4a5.707,5.707,0,0,0-.947-3.4,3.717,3.717,0,0,0-3.245-1.325,7.625,7.625,0,0,0-1.615.183l.3,1.608a6.972,6.972,0,0,1,1.087-.088,2.771,2.771,0,0,1,1.586.386,1.9,1.9,0,0,1,.756,1.013,5.025,5.025,0,0,1,.2,1.5v.522h-5.953v-5.007h-1.865v6.7a1.788,1.788,0,0,1-.323,1.1,1.192,1.192,0,0,1-1.021.431h-.579v1.768h.762a2.867,2.867,0,0,0,2.277-.855,3.532,3.532,0,0,0,.749-2.4Z" fill="#008ad8"/>
    <path id="Path_3345" data-name="Path 3345" d="M601.177,395.969a.913.913,0,0,0,.477.133.9.9,0,0,0,.474-.133,1,1,0,0,0,.345-.349.9.9,0,0,0,.128-.466.989.989,0,0,0-.124-.488.939.939,0,0,0-.346-.356.907.907,0,0,0-.477-.132.934.934,0,0,0-.481.132.972.972,0,0,0-.48.844.877.877,0,0,0,.132.466,1.014,1.014,0,0,0,.352.349" fill="#008ad8"/>
    <path id="Path_3346" data-name="Path 3346" d="M606.47,395.969a.911.911,0,0,0,.477.133.892.892,0,0,0,.473-.133.994.994,0,0,0,.345-.349.892.892,0,0,0,.129-.466,1,1,0,0,0-.124-.488.946.946,0,0,0-.346-.356.912.912,0,0,0-.477-.132.934.934,0,0,0-.481.132.975.975,0,0,0-.481.844.869.869,0,0,0,.133.466,1.031,1.031,0,0,0,.352.349" fill="#008ad8"/>
    <path id="Path_3347" data-name="Path 3347" d="M551.027,409.09h-2l-1.357,4.669c-.318,1.166-.539,2.109-.717,3.077-.224-.952-.459-1.938-.786-3.078l-1.356-4.613-.016-.055h-1.78l-1.387,4.668c-.3,1.034-.507,1.938-.709,2.812-.021.088-.041.175-.061.263-.175-.952-.39-1.872-.717-3.075l-1.357-4.668h-2l3.155,10.468h1.735l1.475-5.064c.317-1.058.548-1.912.752-2.788.211.9.462,1.773.766,2.787l1.475,5.065h1.735L551,409.189Z" fill="#008ad8"/>
    <path id="Path_3348" data-name="Path 3348" d="M557.36,417.42v-3.139c0-1.538-1.177-2.419-3.23-2.419-2.093,0-3.245.843-3.245,2.374v.077h1.935l0-.075c.013-.543.49-.853,1.308-.853.881,0,1.309.284,1.309.866,0,.39-.226.625-.691.721-.446.092-.953.178-1.647.279a5.232,5.232,0,0,0-1.69.569,1.736,1.736,0,0,0-.791,1.658,2.026,2.026,0,0,0,.721,1.666,2.678,2.678,0,0,0,1.728.563,2.741,2.741,0,0,0,2.43-1.263l.39,1.115h1.953l-.046-.107a3.613,3.613,0,0,1-.436-2.032m-3.6.792c-.78,0-1.176-.316-1.176-.94a.742.742,0,0,1,.293-.646,2.731,2.731,0,0,1,.762-.387c.2-.072.409-.134.633-.2a5.742,5.742,0,0,0,1.165-.432v.8a1.736,1.736,0,0,1-.505,1.342,1.715,1.715,0,0,1-1.172.467" fill="#008ad8"/>
    <path id="Path_3349" data-name="Path 3349" d="M560.529,410.122h-1.906v7.224c0,1.53.682,2.213,2.212,2.213h1.536v-1.568h-.96c-.643,0-.882-.262-.882-.969v-3.416h1.842v-1.568h-1.842Z" fill="#008ad8"/>
    <path id="Path_3350" data-name="Path 3350" d="M566.581,411.861c-2.284,0-3.7,1.508-3.7,3.937s1.418,3.937,3.7,3.937a3.946,3.946,0,0,0,2.343-.677,2.569,2.569,0,0,0,1.093-1.806l.012-.087h-1.962l-.014.06a1.323,1.323,0,0,1-1.472.987,1.733,1.733,0,0,1-1.791-1.851h5.331l.012-.061a1.269,1.269,0,0,0,.017-.251V415.8c0-2.429-1.368-3.937-3.569-3.937m-1.754,3.109a1.857,1.857,0,0,1,.566-1.177,1.762,1.762,0,0,1,1.188-.409,1.583,1.583,0,0,1,1.638,1.586Z" fill="#008ad8"/>
    <path id="Path_3351" data-name="Path 3351" d="M575.094,411.965a2.185,2.185,0,0,0-2.1,1.418v-1.345h-1.774v7.521h1.922V415.71a1.751,1.751,0,0,1,1.912-1.971,2.346,2.346,0,0,1,.6.07l.1.027v-1.78l-.057-.015a2.167,2.167,0,0,0-.6-.076" fill="#008ad8"/>
    <path id="Path_3352" data-name="Path 3352" d="M586.941,409.09h-8.862v1.686h3.448v8.782h1.966v-8.782h3.448Z" fill="#008ad8"/>
    <path id="Path_3353" data-name="Path 3353" d="M592.537,417.42v-3.139c0-1.538-1.177-2.419-3.23-2.419-2.092,0-3.244.843-3.244,2.374v.077H588l0-.075c.013-.543.49-.853,1.308-.853.881,0,1.309.284,1.309.866,0,.39-.226.625-.69.721-.447.092-.954.178-1.648.279a5.235,5.235,0,0,0-1.689.569,1.735,1.735,0,0,0-.792,1.658,2.024,2.024,0,0,0,.722,1.666,2.675,2.675,0,0,0,1.727.563,2.739,2.739,0,0,0,2.43-1.263l.39,1.115h1.954l-.046-.107a3.606,3.606,0,0,1-.437-2.032m-3.6.792c-.78,0-1.175-.316-1.175-.94a.743.743,0,0,1,.292-.646,2.745,2.745,0,0,1,.762-.387c.2-.072.409-.134.633-.2a5.742,5.742,0,0,0,1.165-.432v.8a1.736,1.736,0,0,1-.505,1.342,1.715,1.715,0,0,1-1.172.467" fill="#008ad8"/>
    <path id="Path_3354" data-name="Path 3354" d="M597.922,412.038H593.87v7.521h1.921v-6.086h1.515c.908,0,1.367.524,1.367,1.559v4.527h1.921l-.135-4.6c0-1.856-.924-2.92-2.537-2.92" fill="#008ad8"/>
    <path id="Path_3355" data-name="Path 3355" d="M609.009,412.038h-2.251l-1.38,1.5a23.036,23.036,0,0,0-1.613,2.031c.055-.842.083-1.759.083-2.733v-3.746h-1.922v10.468h1.922V417.58l1.091-1.309,1.9,3.25.023.038h2.183l-2.708-4.474Z" fill="#008ad8"/>
    <path id="Path_3356" data-name="Path 3356" d="M614.653,415.733a5.21,5.21,0,0,0-1.51-.628L612.7,415c-.377-.091-.73-.176-1.063-.262-.416-.093-.618-.31-.618-.662,0-.437.427-.719,1.088-.719.77,0,1.236.324,1.28.887l0,.07h1.843v-.077c-.016-1.464-1.215-2.374-3.127-2.374-1.8,0-2.921.882-2.921,2.3a1.777,1.777,0,0,0,.727,1.611,4.5,4.5,0,0,0,1.513.629c.548.133,1.054.253,1.5.353.417.108.62.33.62.678,0,.491-.49.808-1.249.808-.874,0-1.429-.377-1.486-1.006l-.007-.07h-1.842v.077a2.228,2.228,0,0,0,.93,1.815,3.926,3.926,0,0,0,2.4.677,3.745,3.745,0,0,0,2.21-.6,2.083,2.083,0,0,0,.857-1.785,1.777,1.777,0,0,0-.714-1.613" fill="#008ad8"/>
  </g>
</svg>
